
....::::JOIN SCENETIME,COM Sign up is OPEN for now!::::....

....::::JOIN SCENETIME,COM Sign up is OPEN for now!::::....


**********************************************************************************

Love for All and Sharing is the first step to solving all the problems of humanity.

Website I want to share.
             

 scenetime,com

- Latest Releases
- Super Fast Speeds
- Good Community
- Competitions with prizes (yay)
- Love for the Scene


 Credit to EVERYONE for sharing and seeding back
especially to SceneTime where i get all my
downloads.

For more info about this release, open .NFO file with notepad !!!
support scenetime to grow faster.

*************************************************************************************

....::::JOIN SCENETIME,COM Sign up is OPEN for now!::::....
....::::JOIN SCENETIME,COM Sign up is OPEN for now!::::....


General 
http://www.imdb.com/title/tt1907707/
Unique ID                                : 204892344370847536639740856182178285380 (0x9A24D4840D478E9F9820F61BB0FF8744)
Complete name                            : LUV 2013 DVDrip x264 Ac3-MiNiSTRY.mkv
source                                   : DVDR [Thanks]
Format                                   : Matroska
Format version                           : Version 4 / Version 2
File size                                : 1.29 GiB
Duration                                 : 1h 34mn
Overall bit rate mode                    : Variable
Overall bit rate                         : 1 960 Kbps
Encoded date                             : UTC 2013-04-01 08:46:24
Writing application                      : mkvmerge v6.1.0 ('Old Devil') built on Mar  2 2013 14:32:37
Writing library                          : libebml v1.3.0 + libmatroska v1.4.0

Video
ID                                       : 1
Format                                   : AVC
Format/Info                              : Advanced Video Codec
Format profile                           : High 10@L4.1
Format settings, CABAC                   : Yes
Format settings, ReFrames                : 3 frames
Codec ID                                 : V_MPEG4/ISO/AVC
Duration                                 : 1h 34mn
Bit rate mode                            : Variable
Bit rate                                 : 1 510 Kbps
Maximum bit rate                         : 40.0 Mbps
Width                                    : 720 pixels
Height                                   : 304 pixels
Display aspect ratio                     : 2.35:1
Frame rate                               : 23.976 fps
Color space                              : YUV
Chroma subsampling                       : 4:2:0
Bit depth                                : 10 bits
Scan type                                : Progressive
Bits/(Pixel*Frame)                       : 0.288
Stream size                              : 996 MiB (75%)
Writing library                          : x264 core 130 r2273 b3065e6
Language                                 : English
Default                                  : Yes
Forced                                   : No
Color primaries                          : BT.709-5, BT.1361, IEC 61966-2-4, SMPTE RP177
Transfer characteristics                 : BT.709-5, BT.1361
Matrix coefficients                      : BT.709-5, BT.1361, IEC 61966-2-4 709, SMPTE RP177

Audio
ID                                       : 2
Format                                   : AC-3
Format/Info                              : Audio Coding 3
Mode extension                           : CM (complete main)
Codec ID                                 : A_AC3
Duration                                 : 1h 34mn
Bit rate mode                            : Constant
Bit rate                                 : 448 Kbps
Channel(s)                               : 6 channels
Channel positions                        : Front: L C R, Side: L R, LFE
Sampling rate                            : 48.0 KHz
Bit depth                                : 16 bits
Compression mode                         : Lossy
Stream size                              : 303 MiB (23%)
Default                                  : Yes
Forced                                   : No
